<svg xmlns="http://www.w3.org/2000/svg" viewBox="0 0 96 96" fill="none">
  <defs>
    <linearGradient id="bg" x1="6" y1="0" x2="90" y2="96" gradientUnits="userSpaceOnUse">
      <stop stop-color="#2A3CAE"/><stop offset="0.5" stop-color="#121E69"/><stop offset="1" stop-color="#080C30"/>
    </linearGradient>
    <radialGradient id="glow" cx="0" cy="0" r="1" gradientUnits="userSpaceOnUse" gradientTransform="translate(82 96) rotate(-125) scale(86)">
      <stop stop-color="#3350FF" stop-opacity="0.8"/><stop offset="1" stop-color="#3350FF" stop-opacity="0"/>
    </radialGradient>
    <radialGradient id="top" cx="0" cy="0" r="1" gradientUnits="userSpaceOnUse" gradientTransform="translate(30 4) rotate(35) scale(60)">
      <stop stop-color="#fff" stop-opacity="0.22"/><stop offset="1" stop-color="#fff" stop-opacity="0"/>
    </radialGradient>
    <linearGradient id="rim" x1="48" y1="0" x2="48" y2="96" gradientUnits="userSpaceOnUse">
      <stop stop-color="#fff" stop-opacity="0.38"/><stop offset="0.5" stop-color="#fff" stop-opacity="0.04"/><stop offset="1" stop-color="#8FA0FF" stop-opacity="0.4"/>
    </linearGradient>
    <linearGradient id="stem" x1="48" y1="30" x2="48" y2="80" gradientUnits="userSpaceOnUse">
      <stop stop-color="#FFFFFF"/><stop offset="1" stop-color="#AEBBFF"/>
    </linearGradient>
    <linearGradient id="hl" x1="14" y1="0" x2="82" y2="0" gradientUnits="userSpaceOnUse">
      <stop stop-color="#FFBE1F"/><stop offset="0.7" stop-color="#FFE45C"/><stop offset="1" stop-color="#FFF4B0"/>
    </linearGradient>
    <filter id="sh" x="-30%" y="-30%" width="160%" height="170%"><feDropShadow dx="0" dy="2.5" stdDeviation="2.2" flood-color="#02041A" flood-opacity="0.55"/></filter>
  </defs>
  <rect width="96" height="96" rx="27" fill="url(#bg)"/>
  <rect width="96" height="96" rx="27" fill="url(#glow)"/>
  <rect width="96" height="96" rx="27" fill="url(#top)"/>
  <rect x=".75" y=".75" width="94.5" height="94.5" rx="26.25" stroke="url(#rim)" stroke-width="1.5"/>
  <!-- bookmark stem -->
  <path d="M38.5 30H57.5V78.5L48 69.5L38.5 78.5Z" fill="url(#stem)" stroke="url(#stem)" stroke-width="3.5" stroke-linejoin="round" filter="url(#sh)"/>
  <!-- highlighter pen crossbar with chisel tip -->
  <g transform="rotate(-4 48 31)" filter="url(#sh)">
    <path d="M24 19.5H70.5L81 25.5Q83 27 82.2 29.4L79.5 37.5Q78.8 40 76.2 40H24Q16 40 16 29.75 16 19.5 24 19.5Z" fill="url(#hl)"/>
    <path d="M24 19.5H70.5L74 21.5H24Q18 21.5 17 26 17.7 20 24 19.5Z" fill="#fff" fill-opacity=".4"/>
    <path d="M70.5 19.5L76.5 40" stroke="#B87B00" stroke-opacity=".35" stroke-width="1.4"/>
  </g>
</svg>
